HIERARCHY
ROOT Hips
{
	OFFSET -0.759342 87.667793 4.689505
	CHANNELS 6 Xposition Yposition Zposition Zrotation Yrotation Xrotation 
	JOINT Spine
	{
		OFFSET 0.000000 8.814246 -2.080107
		CHANNELS 3 Zrotation Yrotation Xrotation
		JOINT Spine1
		{
			OFFSET -0.000000 8.844141 0.000000
			CHANNELS 3 Zrotation Yrotation Xrotation
			JOINT Spine2
			{
				OFFSET -0.000000 11.682268 -0.000000
				CHANNELS 3 Zrotation Yrotation Xrotation
				JOINT Spine3
				{
					OFFSET 0.000000 11.746700 0.000000
					CHANNELS 3 Zrotation Yrotation Xrotation
					JOINT Neck
					{
						OFFSET -0.000000 17.658264 0.000000
						CHANNELS 3 Zrotation Yrotation Xrotation
						JOINT Neck1
						{
							OFFSET 0.000000 5.101515 -0.000000
							CHANNELS 3 Zrotation Yrotation Xrotation
							JOINT Head
							{
								OFFSET -0.000000 5.101515 0.000000
								CHANNELS 3 Zrotation Yrotation Xrotation
								JOINT HeadEnd
								{
									OFFSET 0.000000 11.655085 -0.000000
									CHANNELS 3 Zrotation Yrotation Xrotation
									End Site
									{
										OFFSET 0.000000 0.000000 0.000000
									}
								}
							}
						}
					}
					JOINT RightShoulder
					{
						OFFSET -2.625389 11.175210 -0.000000
						CHANNELS 3 Zrotation Yrotation Xrotation
						JOINT RightArm
						{
							OFFSET -0.000000 10.434715 0.000000
							CHANNELS 3 Zrotation Yrotation Xrotation
							JOINT RightForeArm
							{
								OFFSET -0.000000 29.628420 0.000000
								CHANNELS 3 Zrotation Yrotation Xrotation
								JOINT RightHand
								{
									OFFSET -0.000000 22.857611 0.000000
									CHANNELS 3 Zrotation Yrotation Xrotation
									JOINT RightHandThumb1
									{
										OFFSET -2.867323 3.959563 2.944291
										CHANNELS 3 Zrotation Yrotation Xrotation
										JOINT RightHandThumb2
										{
											OFFSET -0.000000 3.350399 0.000000
											CHANNELS 3 Zrotation Yrotation Xrotation
											JOINT RightHandThumb3
											{
												OFFSET 0.000000 3.756509 -0.000000
												CHANNELS 3 Zrotation Yrotation Xrotation
												JOINT RightHandThumb4
												{
													OFFSET 0.000000 3.147345 -0.000000
													CHANNELS 3 Zrotation Yrotation Xrotation
													End Site
													{
														OFFSET 0.000000 0.000000 0.000000
													}
												}
											}
										}
									}
									JOINT RightHandIndex1
									{
										OFFSET -0.086752 10.030893 2.345280
										CHANNELS 3 Zrotation Yrotation Xrotation
										JOINT RightHandIndex2
										{
											OFFSET -0.000000 4.061090 0.000000
											CHANNELS 3 Zrotation Yrotation Xrotation
											JOINT RightHandIndex3
											{
												OFFSET 0.000000 3.248873 -0.000000
												CHANNELS 3 Zrotation Yrotation Xrotation
												JOINT RightHandIndex4
												{
													OFFSET -0.000000 2.639709 0.000000
													CHANNELS 3 Zrotation Yrotation Xrotation
													End Site
													{
														OFFSET 0.000000 0.000000 0.000000
													}
												}
											}
										}
									}
									JOINT RightHandMiddle1
									{
										OFFSET 0.104102 9.502952 0.006768
										CHANNELS 3 Zrotation Yrotation Xrotation
										JOINT RightHandMiddle2
										{
											OFFSET -0.000000 4.568727 0.000000
											CHANNELS 3 Zrotation Yrotation Xrotation
											JOINT RightHandMiddle3
											{
												OFFSET -0.000000 3.654981 0.000000
												CHANNELS 3 Zrotation Yrotation Xrotation
												JOINT RightHandMiddle4
												{
													OFFSET 0.000000 2.741236 -0.000000
													CHANNELS 3 Zrotation Yrotation Xrotation
													End Site
													{
														OFFSET 0.000000 0.000000 0.000000
													}
												}
											}
										}
									}
									JOINT RightHandRing1
									{
										OFFSET 0.086752 8.921708 -2.267442
										CHANNELS 3 Zrotation Yrotation Xrotation
										JOINT RightHandRing2
										{
											OFFSET 0.000000 4.061090 -0.000000
											CHANNELS 3 Zrotation Yrotation Xrotation
											JOINT RightHandRing3
											{
												OFFSET -0.000000 3.654981 0.000000
												CHANNELS 3 Zrotation Yrotation Xrotation
												JOINT RightHandRing4
												{
													OFFSET -0.000000 2.741236 0.000000
													CHANNELS 3 Zrotation Yrotation Xrotation
													End Site
													{
														OFFSET 0.000000 0.000000 0.000000
													}
												}
											}
										}
									}
									JOINT RightHandPinky1
									{
										OFFSET -0.173504 7.976997 -4.467199
										CHANNELS 3 Zrotation Yrotation Xrotation
										JOINT RightHandPinky2
										{
											OFFSET 0.000000 3.350399 -0.000000
											CHANNELS 3 Zrotation Yrotation Xrotation
											JOINT RightHandPinky3
											{
												OFFSET -0.000000 2.842763 0.000000
												CHANNELS 3 Zrotation Yrotation Xrotation
												JOINT RightHandPinky4
												{
													OFFSET 0.000000 2.639709 -0.000000
													CHANNELS 3 Zrotation Yrotation Xrotation
													End Site
													{
														OFFSET 0.000000 0.000000 0.000000
													}
												}
											}
										}
									}
									JOINT RightForeArmEnd
									{
										OFFSET 0.000000 0.000000 0.000000
										CHANNELS 3 Zrotation Yrotation Xrotation
										End Site
										{
											OFFSET 0.000000 0.000000 0.000000
										}
									}
								}
								JOINT RightArmEnd
								{
									OFFSET 0.000000 0.000000 0.000000
									CHANNELS 3 Zrotation Yrotation Xrotation
									End Site
									{
										OFFSET 0.000000 0.000000 0.000000
									}
								}
							}
						}
					}
					JOINT LeftShoulder
					{
						OFFSET 2.625389 11.175210 0.000000
						CHANNELS 3 Zrotation Yrotation Xrotation
						JOINT LeftArm
						{
							OFFSET 0.000000 10.813635 0.000000
							CHANNELS 3 Zrotation Yrotation Xrotation
							JOINT LeftForeArm
							{
								OFFSET 0.000000 28.724781 -0.000000
								CHANNELS 3 Zrotation Yrotation Xrotation
								JOINT LeftHand
								{
									OFFSET 0.644384 25.716167 -0.328871
									CHANNELS 3 Zrotation Yrotation Xrotation
									JOINT LeftHandThumb1
									{
										OFFSET 2.867323 3.959563 2.944291
										CHANNELS 3 Zrotation Yrotation Xrotation
										JOINT LeftHandThumb2
										{
											OFFSET -0.000000 3.350399 -0.000000
											CHANNELS 3 Zrotation Yrotation Xrotation
											JOINT LeftHandThumb3
											{
												OFFSET -0.000000 3.756509 0.000000
												CHANNELS 3 Zrotation Yrotation Xrotation
												JOINT LeftHandThumb4
												{
													OFFSET 0.000000 3.100000 -0.000000
													CHANNELS 3 Zrotation Yrotation Xrotation
													End Site
													{
														OFFSET 0.000000 0.000000 0.000000
													}
												}
											}
										}
									}
									JOINT LeftHandIndex1
									{
										OFFSET 0.086752 10.030893 2.345280
										CHANNELS 3 Zrotation Yrotation Xrotation
										JOINT LeftHandIndex2
										{
											OFFSET 0.000000 4.061090 -0.000000
											CHANNELS 3 Zrotation Yrotation Xrotation
											JOINT LeftHandIndex3
											{
												OFFSET -0.000000 3.248873 -0.000000
												CHANNELS 3 Zrotation Yrotation Xrotation
												JOINT LeftHandIndex4
												{
													OFFSET -0.000000 2.639709 -0.000000
													CHANNELS 3 Zrotation Yrotation Xrotation
													End Site
													{
														OFFSET 0.000000 0.000000 0.000000
													}
												}
											}
										}
									}
									JOINT LeftHandMiddle1
									{
										OFFSET -0.104102 9.502952 0.006768
										CHANNELS 3 Zrotation Yrotation Xrotation
										JOINT LeftHandMiddle2
										{
											OFFSET 0.000000 4.568727 0.000000
											CHANNELS 3 Zrotation Yrotation Xrotation
											JOINT LeftHandMiddle3
											{
												OFFSET -0.000000 3.654981 -0.000000
												CHANNELS 3 Zrotation Yrotation Xrotation
												JOINT LeftHandMiddle4
												{
													OFFSET 0.000000 2.741236 0.000000
													CHANNELS 3 Zrotation Yrotation Xrotation
													End Site
													{
														OFFSET 0.000000 0.000000 0.000000
													}
												}
											}
										}
									}
									JOINT LeftHandRing1
									{
										OFFSET -0.086752 8.921708 -2.267442
										CHANNELS 3 Zrotation Yrotation Xrotation
										JOINT LeftHandRing2
										{
											OFFSET -0.000000 4.061090 -0.000000
											CHANNELS 3 Zrotation Yrotation Xrotation
											JOINT LeftHandRing3
											{
												OFFSET -0.000000 3.654981 0.000000
												CHANNELS 3 Zrotation Yrotation Xrotation
												JOINT LeftHandRing4
												{
													OFFSET -0.000000 2.741236 -0.000000
													CHANNELS 3 Zrotation Yrotation Xrotation
													End Site
													{
														OFFSET 0.000000 0.000000 0.000000
													}
												}
											}
										}
									}
									JOINT LeftHandPinky1
									{
										OFFSET 0.173504 7.976997 -4.467199
										CHANNELS 3 Zrotation Yrotation Xrotation
										JOINT LeftHandPinky2
										{
											OFFSET 0.000000 3.350399 0.000000
											CHANNELS 3 Zrotation Yrotation Xrotation
											JOINT LeftHandPinky3
											{
												OFFSET -0.000000 2.842763 -0.000000
												CHANNELS 3 Zrotation Yrotation Xrotation
												JOINT LeftHandPinky4
												{
													OFFSET -0.000000 2.639709 -0.000000
													CHANNELS 3 Zrotation Yrotation Xrotation
													End Site
													{
														OFFSET 0.000000 0.000000 0.000000
													}
												}
											}
										}
									}
									JOINT LeftForeArmEnd
									{
										OFFSET 0.000000 0.000000 0.000000
										CHANNELS 3 Zrotation Yrotation Xrotation
										End Site
										{
											OFFSET 0.000000 0.000000 0.000000
										}
									}
								}
								JOINT LeftArmEnd
								{
									OFFSET 0.000000 0.000000 0.000000
									CHANNELS 3 Zrotation Yrotation Xrotation
									End Site
									{
										OFFSET 0.000000 0.000000 0.000000
									}
								}
							}
						}
					}
				}
			}
		}
	}
	JOINT RightUpLeg
	{
		OFFSET -11.289943 -0.000000 0.000000
		CHANNELS 3 Zrotation Yrotation Xrotation
		JOINT RightLeg
		{
			OFFSET 0.000000 -38.200325 -0.000000
			CHANNELS 3 Zrotation Yrotation Xrotation
			JOINT RightFoot
			{
				OFFSET 0.000000 -39.900856 0.000000
				CHANNELS 3 Zrotation Yrotation Xrotation
				JOINT RightToeBase
				{
					OFFSET 0.000000 -0.000000 15.261641
					CHANNELS 3 Zrotation Yrotation Xrotation
					JOINT RightToeBaseEnd
					{
						OFFSET -0.000000 -0.000000 7.370709
						CHANNELS 3 Zrotation Yrotation Xrotation
						End Site
						{
							OFFSET 0.000000 0.000000 0.000000
						}
					}
				}
				JOINT RightLegEnd
				{
					OFFSET 0.000000 0.000000 0.000000
					CHANNELS 3 Zrotation Yrotation Xrotation
					End Site
					{
						OFFSET 0.000000 0.000000 0.000000
					}
				}
			}
			JOINT RightUpLegEnd
			{
				OFFSET 0.000000 0.000000 0.000000
				CHANNELS 3 Zrotation Yrotation Xrotation
				End Site
				{
					OFFSET 0.000000 0.000000 0.000000
				}
			}
		}
	}
	JOINT LeftUpLeg
	{
		OFFSET 11.315661 -0.000000 -0.000000
		CHANNELS 3 Zrotation Yrotation Xrotation
		JOINT LeftLeg
		{
			OFFSET -0.000000 -38.200325 0.000000
			CHANNELS 3 Zrotation Yrotation Xrotation
			JOINT LeftFoot
			{
				OFFSET 0.000000 -39.900856 -0.000000
				CHANNELS 3 Zrotation Yrotation Xrotation
				JOINT LeftToeBase
				{
					OFFSET -0.000000 -0.000000 15.261641
					CHANNELS 3 Zrotation Yrotation Xrotation
					JOINT LeftToeBaseEnd
					{
						OFFSET 0.000000 -0.000000 7.539996
						CHANNELS 3 Zrotation Yrotation Xrotation
						End Site
						{
							OFFSET 0.000000 0.000000 0.000000
						}
					}
				}
				JOINT LeftLegEnd
				{
					OFFSET 0.000000 0.000000 0.000000
					CHANNELS 3 Zrotation Yrotation Xrotation
					End Site
					{
						OFFSET 0.000000 0.000000 0.000000
					}
				}
			}
			JOINT LeftUpLegEnd
			{
				OFFSET 0.000000 0.000000 0.000000
				CHANNELS 3 Zrotation Yrotation Xrotation
				End Site
				{
					OFFSET 0.000000 0.000000 0.000000
				}
			}
		}
	}
}
MOTION
Frames: 5
Frame Time: 0.016667
3.159446 86.647209 35.762959 2.864383 -11.477681 -16.705963 -3.059094 0.825333 8.043155 0.801235 0.385936 2.778448 -0.530523 4.489601 7.863400 0.888999 1.666165 3.497266 -6.351502 1.941553 8.555721 0.501616 0.021886 -3.561344 -0.524246 -0.141871 -23.073992 0.000000 0.000000 0.000000 85.942383 2.183363 14.953677 45.523304 -1.653999 25.687187 0.989023 21.478079 65.244110 44.369461 60.275337 29.676023 7.185600 -1.408325 41.521130 0.000009 0.000012 -17.538790 -0.000011 0.000041 -12.163806 -0.000008 -0.000002 0.000025 -3.343263 17.173197 1.304599 1.433061 -0.945597 -0.869498 1.108820 0.057846 -0.789996 -0.000002 -0.000007 0.000009 -1.892869 7.088996 -2.374587 1.709405 -0.980546 -0.392304 1.935963 0.015571 -0.323229 0.000003 -0.000010 0.000018 6.673573 -8.939517 -7.236070 3.898132 1.965450 0.741166 3.829988 -0.023014 0.580698 0.000030 0.000623 0.000001 16.842997 -24.972973 -13.667548 6.199203 3.762215 2.988937 6.037834 -0.196183 2.523510 0.001537 0.000009 0.000024 0.000000 0.000000 0.000000 0.000000 0.000000 0.000000 -88.607239 -0.917412 13.522907 -53.037167 -6.646200 8.245360 -3.802181 -25.114100 69.261467 -10.899875 -70.985268 4.840414 -9.451708 1.635618 40.538223 -0.000009 -0.000011 -22.972105 0.000109 -0.000035 -16.012869 0.000234 0.000015 0.000501 -1.369739 18.491304 0.848437 -3.612958 -0.872157 1.365057 -3.688049 0.144130 1.218122 0.000020 0.000894 0.000004 -2.881103 7.504396 -1.262378 -3.723088 -0.976192 0.547529 -3.865804 0.036397 0.467152 -0.000755 -0.000024 0.000079 -4.706791 -9.263568 -4.025774 -4.298106 1.947835 -0.811723 -4.113671 -0.061858 -0.622700 -0.000014 0.000005 -0.000013 -3.323619 -25.551308 -9.288946 -4.541451 3.792983 -2.519771 -4.728639 -0.215179 -2.127235 0.001752 0.000004 -0.000021 0.000000 0.000000 0.000000 0.000000 0.000000 0.000000 -12.661552 8.467341 8.363831 -0.568468 -1.278748 22.972332 5.025443 -0.010576 15.132227 -1.116853 0.376174 -22.664413 0.000000 0.000000 0.000000 0.000000 0.000000 0.000000 0.000000 0.000000 0.000000 -2.574307 13.853493 16.951454 0.108399 0.462797 11.456149 2.871970 16.429836 13.129056 0.387044 -0.760505 -18.319780 0.000000 0.000000 0.000000 0.000000 0.000000 0.000000 0.000000 0.000000 0.000000 
3.256318 86.606689 35.796082 2.829109 -12.002802 -16.721819 -3.059217 0.830936 8.071071 0.852365 0.368853 2.771537 -0.527080 4.560745 7.785866 0.876158 1.697672 3.526806 -6.522742 2.063056 8.584375 0.483989 0.055622 -3.522949 -0.548228 -0.130026 -22.984451 0.000000 0.000000 0.000000 85.885925 2.210023 15.043641 45.594929 -2.034908 25.747036 1.029711 21.540157 64.106941 45.292534 60.257347 29.835331 7.284984 -1.422735 41.473526 0.000009 0.000012 -17.789093 -0.000010 0.000041 -12.333282 -0.000008 -0.000002 0.000024 -2.845040 17.161203 1.086189 1.550143 -0.939740 -0.908319 1.235561 0.064145 -0.827097 -0.000002 -0.000005 0.000009 -1.347207 7.085143 -2.521236 1.847700 -0.977493 -0.409232 2.072807 0.018066 -0.336470 0.000003 -0.000007 0.000018 7.245532 -8.932698 -7.280530 4.074308 1.960705 0.760951 4.011426 -0.026802 0.596500 0.000029 0.000691 0.000001 17.371540 -24.946350 -13.647305 6.370558 3.751232 3.040459 6.202890 -0.206336 2.568306 0.001553 0.000009 0.000024 0.000000 0.000000 0.000000 0.000000 0.000000 0.000000 -88.543076 -0.941291 13.559270 -53.034355 -6.097481 8.094761 -3.755563 -25.019159 68.929245 -11.377544 -71.312447 4.905601 -9.471555 1.639586 40.524986 -0.000009 -0.000010 -23.022375 0.000103 -0.000034 -16.039690 0.000273 0.000016 0.000633 -1.582747 18.467264 0.761387 -3.609157 -0.868808 1.384550 -3.681544 0.147043 1.237186 0.000019 0.000957 0.000004 -3.098778 7.495926 -1.336284 -3.738419 -0.974521 0.555696 -3.863370 0.037466 0.473630 -0.000754 -0.000024 0.000079 -4.939543 -9.252797 -4.074381 -4.326005 1.945684 -0.821789 -4.138535 -0.063057 -0.630509 0.000051 0.000004 -0.000013 -3.556921 -25.519728 -9.311619 -4.577767 3.787494 -2.549145 -4.762525 -0.218156 -2.150434 0.001742 0.000004 -0.000021 0.000000 0.000000 0.000000 0.000000 0.000000 0.000000 -12.645725 8.570889 8.124687 -0.569895 -1.281718 23.033205 4.981337 0.224716 15.250181 -1.116724 0.381789 -22.688206 0.000000 0.000000 0.000000 0.000000 0.000000 0.000000 0.000000 0.000000 0.000000 -2.554483 14.123198 16.940462 0.107643 0.459727 11.542973 2.854432 16.611580 12.938992 0.378225 -0.753471 -18.264122 0.000000 0.000000 0.000000 0.000000 0.000000 0.000000 0.000000 0.000000 0.000000 
3.348391 86.567245 35.834881 2.791519 -12.489594 -16.745348 -3.055114 0.836960 8.097954 0.904091 0.354001 2.770222 -0.517419 4.635602 7.712348 0.857390 1.732642 3.546581 -6.699898 2.170082 8.610705 0.463243 0.070627 -3.492702 -0.570823 -0.120913 -22.901735 0.000000 0.000000 0.000000 85.852516 2.233990 15.116089 45.705627 -2.298101 25.787222 1.065249 21.608316 63.179268 46.070503 60.186150 29.942154 7.379835 -1.436537 41.427456 0.000009 0.000013 -18.031851 -0.000010 0.000041 -12.497996 -0.000008 -0.000003 0.000023 -2.380591 17.152374 0.859581 1.663229 -0.935485 -0.944073 1.359821 0.069012 -0.861739 -0.000002 -0.000004 0.000008 -0.832574 7.081480 -2.675146 1.979598 -0.975145 -0.424835 2.202377 0.020097 -0.348806 0.000003 -0.000006 0.000018 7.791801 -8.926135 -7.337559 4.241256 1.957067 0.779101 4.183567 -0.029949 0.611064 0.000029 0.000780 0.000001 17.873171 -24.921928 -13.640769 6.530478 3.743680 3.086350 6.357724 -0.213959 2.608877 0.001572 0.000009 0.000024 0.000000 0.000000 0.000000 0.000000 0.000000 0.000000 -88.506996 -0.957881 13.587877 -53.118477 -5.626189 7.968297 -3.690670 -24.920010 68.892830 -11.934719 -71.638725 5.140814 -9.488733 1.642983 40.513790 -0.000008 -0.000010 -23.065279 0.000096 -0.000034 -16.061060 0.000309 0.000016 0.000767 -1.790310 18.445223 0.663029 -3.605738 -0.866027 1.405201 -3.676264 0.149340 1.257540 0.000019 0.001013 0.000004 -3.311094 7.487681 -1.418256 -3.751639 -0.973034 0.564396 -3.861084 0.038463 0.480518 -0.000740 -0.000024 0.000078 -5.172422 -9.241414 -4.136779 -4.358203 1.943845 -0.832022 -4.166354 -0.064047 -0.638676 0.000119 0.000004 -0.000013 -3.797457 -25.487925 -9.350864 -4.623668 3.783380 -2.578976 -4.805694 -0.220332 -2.174852 0.001715 0.000004 -0.000021 0.000000 0.000000 0.000000 0.000000 0.000000 0.000000 -12.626331 8.666221 7.914558 -0.571114 -1.285196 23.079329 4.947575 0.413024 15.358854 -1.120231 0.386436 -22.709204 0.000000 0.000000 0.000000 0.000000 0.000000 0.000000 0.000000 0.000000 0.000000 -2.529041 14.385183 16.937565 0.107267 0.456337 11.637383 2.841294 16.769470 12.746520 0.369344 -0.744431 -18.207468 0.000000 0.000000 0.000000 0.000000 0.000000 0.000000 0.000000 0.000000 0.000000 
3.437051 86.531906 35.881245 2.756684 -12.939660 -16.780392 -3.046357 0.842033 8.116169 0.952899 0.341322 2.772049 -0.497881 4.700273 7.642039 0.834865 1.764041 3.559736 -6.875364 2.279785 8.638597 0.444573 0.089928 -3.470662 -0.598541 -0.114036 -22.827963 0.000000 0.000000 0.000000 85.843391 2.256890 15.171679 45.829571 -2.468372 25.788435 1.092530 21.658150 62.565426 46.820797 60.055576 30.109924 7.456804 -1.447278 41.389500 0.000010 0.000012 -18.235825 -0.000010 0.000041 -12.635722 -0.000008 -0.000003 0.000023 -2.009997 17.148439 0.645836 1.765718 -0.931787 -0.977321 1.473148 0.073301 -0.894252 -0.000002 -0.000003 0.000008 -0.409043 7.079203 -2.822634 2.099859 -0.973092 -0.439403 2.318482 0.021969 -0.360430 0.000003 -0.000008 0.000019 8.252466 -8.922511 -7.406618 4.391483 1.953930 0.796339 4.339012 -0.032857 0.624795 0.000028 0.000876 0.000001 18.298986 -24.906601 -13.654998 6.671533 3.737713 3.129531 6.494798 -0.220672 2.647494 0.001597 0.000010 0.000024 0.000000 0.000000 0.000000 0.000000 0.000000 0.000000 -88.486931 -0.969643 13.618041 -53.327808 -5.326001 7.884082 -3.613406 -24.808237 69.143051 -12.515859 -71.955040 5.505191 -9.503560 1.645989 40.504234 -0.000008 -0.000010 -23.103745 0.000088 -0.000033 -16.078165 0.000339 0.000016 0.000912 -1.975392 18.425098 0.551774 -3.596272 -0.863447 1.426296 -3.667376 0.151321 1.278544 0.000019 0.001055 0.000005 -3.500396 7.479733 -1.515178 -3.757545 -0.971555 0.573357 -3.855233 0.039465 0.487615 -0.000691 -0.000024 0.000077 -5.391387 -9.230318 -4.224667 -4.395328 1.942006 -0.842327 -4.199442 -0.064976 -0.647090 0.000186 0.000004 -0.000013 -4.024114 -25.459003 -9.420526 -4.681125 3.779717 -2.609881 -4.860387 -0.222253 -2.200870 0.001673 0.000005 -0.000022 0.000000 0.000000 0.000000 0.000000 0.000000 0.000000 -12.611979 8.758445 7.734772 -0.572528 -1.289935 23.115339 4.927326 0.555321 15.454844 -1.127846 0.389449 -22.727242 0.000000 0.000000 0.000000 0.000000 0.000000 0.000000 0.000000 0.000000 0.000000 -2.504248 14.626836 16.953861 0.107076 0.452153 11.720052 2.835778 16.894894 12.557178 0.360377 -0.733547 -18.148804 0.000000 0.000000 0.000000 0.000000 0.000000 0.000000 0.000000 0.000000 0.000000 
3.523678 86.501175 35.932598 2.730247 -13.353486 -16.827288 -3.037755 0.847089 8.130304 0.994887 0.331295 2.777377 -0.473539 4.756577 7.578732 0.810563 1.792458 3.561667 -7.024618 2.382008 8.649053 0.431849 0.111229 -3.461436 -0.626828 -0.109869 -22.755747 0.000000 0.000000 0.000000 85.846985 2.280326 15.208502 45.996788 -2.554423 25.751432 1.105522 21.685236 62.249775 47.526585 59.898708 30.328302 7.514663 -1.454699 41.360924 0.000010 0.000012 -18.393005 -0.000011 0.000041 -12.741116 -0.000009 -0.000003 0.000022 -1.739737 17.149759 0.456279 1.849628 -0.928508 -1.007046 1.566684 0.077188 -0.923474 -0.000002 -0.000002 0.000008 -0.082527 7.078671 -2.960191 2.202825 -0.971288 -0.452498 2.416240 0.023696 -0.370994 0.000002 -0.000011 0.000019 8.636456 -8.922159 -7.487606 4.525943 1.951142 0.812416 4.477483 -0.035657 0.637502 0.000028 0.000977 0.000002 18.674046 -24.897758 -13.699635 6.800809 3.732581 3.171016 6.621392 -0.227130 2.684724 0.001626 0.000010 0.000023 0.000000 0.000000 0.000000 0.000000 0.000000 0.000000 -88.480644 -0.977646 13.651433 -53.647018 -5.148964 7.816834 -3.522731 -24.679739 69.682938 -13.241279 -72.229561 6.073208 -9.514700 1.648396 40.497204 -0.000007 -0.000010 -23.132093 0.000078 -0.000033 -16.087973 0.000369 0.000017 0.001063 -2.142977 18.405481 0.422812 -3.579954 -0.861162 1.446013 -3.652710 0.152914 1.298787 0.000018 0.001088 0.000005 -3.669663 7.471796 -1.632724 -3.755904 -0.970139 0.581850 -3.845790 0.040404 0.494376 -0.000622 -0.000024 0.000074 -5.596389 -9.219600 -4.347561 -4.433665 1.940238 -0.852111 -4.233905 -0.065824 -0.655173 0.000237 0.000004 -0.000013 -4.233270 -25.432034 -9.534365 -4.743095 3.776507 -2.640207 -4.920008 -0.223963 -2.227019 0.001620 0.000005 -0.000022 0.000000 0.000000 0.000000 0.000000 0.000000 0.000000 -12.609581 8.850972 7.579434 -0.574144 -1.295705 23.144974 4.920006 0.657535 15.543379 -1.138890 0.391613 -22.743425 0.000000 0.000000 0.000000 0.000000 0.000000 0.000000 0.000000 0.000000 0.000000 -2.487778 14.841773 16.990387 0.107110 0.447682 11.787090 2.837918 16.987589 12.376737 0.351045 -0.722862 -18.091412 0.000000 0.000000 0.000000 0.000000 0.000000 0.000000 0.000000 0.000000 0.000000 
